<mxfile host="65bd71144e">
    <diagram id="F9sZBgLblvDnPNwySOUc" name="Page-1">
        <mxGraphModel dx="433" dy="379" grid="1" gridSize="10" guides="1" tooltips="1" connect="1" arrows="1" fold="1" page="1" pageScale="1" pageWidth="827" pageHeight="1169" math="0" shadow="0">
            <root>
                <mxCell id="0"/>
                <mxCell id="1" parent="0"/>
                <mxCell id="28" style="edgeStyle=none;rounded=0;html=1;exitX=1;exitY=0.57;exitDx=0;exitDy=0;exitPerimeter=0;endArrow=none;endFill=0;" edge="1" parent="1" source="3">
                    <mxGeometry relative="1" as="geometry">
                        <mxPoint x="560" y="285.6" as="targetPoint"/>
                    </mxGeometry>
                </mxCell>
                <mxCell id="3" value="" style="verticalLabelPosition=bottom;shadow=0;dashed=0;align=center;html=1;verticalAlign=top;shape=mxgraph.electrical.opto_electronics.led_2;pointerEvents=1;" vertex="1" parent="1">
                    <mxGeometry x="400" y="240" width="120" height="80" as="geometry"/>
                </mxCell>
                <mxCell id="27" style="edgeStyle=none;rounded=0;html=1;exitX=1;exitY=0.57;exitDx=0;exitDy=0;exitPerimeter=0;endArrow=none;endFill=0;" edge="1" parent="1" source="5">
                    <mxGeometry relative="1" as="geometry">
                        <mxPoint x="560" y="205.60000000000002" as="targetPoint"/>
                    </mxGeometry>
                </mxCell>
                <mxCell id="5" value="" style="verticalLabelPosition=bottom;shadow=0;dashed=0;align=center;html=1;verticalAlign=top;shape=mxgraph.electrical.opto_electronics.led_2;pointerEvents=1;" vertex="1" parent="1">
                    <mxGeometry x="400" y="160" width="120" height="80" as="geometry"/>
                </mxCell>
                <mxCell id="29" style="edgeStyle=none;rounded=0;html=1;exitX=1;exitY=0.57;exitDx=0;exitDy=0;exitPerimeter=0;endArrow=none;endFill=0;" edge="1" parent="1" source="6">
                    <mxGeometry relative="1" as="geometry">
                        <mxPoint x="560" y="365.6" as="targetPoint"/>
                    </mxGeometry>
                </mxCell>
                <mxCell id="6" value="" style="verticalLabelPosition=bottom;shadow=0;dashed=0;align=center;html=1;verticalAlign=top;shape=mxgraph.electrical.opto_electronics.led_2;pointerEvents=1;" vertex="1" parent="1">
                    <mxGeometry x="400" y="320" width="120" height="80" as="geometry"/>
                </mxCell>
                <mxCell id="8" value="" style="shape=image;verticalLabelPosition=bottom;verticalAlign=top;imageAspect=0;aspect=fixed;image=data:image/png,iVBORw0KGgoAAAANSUhEUgAAAnkAAAGvCAYAAAAnhsMOAAAAAXNSR0IArs4c6QAAIABJREFUeF7t3X98VdWd7/9jfBAskqg5EcKvkGiCMWewIQMeTRGskjDgg6ETZHp5SMtcxZlvmX47D3Ra2vuAO/TCY1r6Qx7TaentlXpLxcujRTLDcIUxQWsojUaYhClNGkk0GH4YMAfaJDAmPNTv45PJ4ruze06y99prJ+fHi39qYe+113qufXLeWWuvtW8I8AcBBBBAAAEEEEAg6QRuSLoWjVGDLl68WHj27Nll165dyxyjKnBZBBBAAAEEEEgggVtuueU3t99+e3UwGOz2o9qEPI+qHR0dcxsbG3/Y3d0912NRnI4AAggggAACKSiQnZ19OD8//0dFRUUvmmw+Ic+D5smTJx9vbm7+Vn9/f9BDMZyKAAIIIIAAAggESkpKnpg9e/ZzpigIeZqSLS0tjx47dmyv/XRJ45pFchoCCCCAAAIIpIjA1atX865evVpgbW56enrk/vvv/5Pc3NzjJhgIeZqKhw4dqunq6lqkTs/Pz99+9913b/ZrXl2zmpyGAAIIIIAAAnEqoJ7nb2pq+q6qYmZm5vHly5fPM1FlQp6GYiQSyTx48ODv1amhUOjp0tLSZzSK4hQEEEAAAQQQSHGBo0ePPtPe3r5eMSxevHjWpEmTWr2yEPI0BO1TtaY6Q6MqnIIAAggggAACCS7g1+ARIU/jxqivr9986tSpv5NTJ0yY0LZixYpCjWI4BQEEEEAAAQQQGBCwPgYmj4DNnz//Ka80hDwNQWvIk4UWS5YsKdcohlMQQAABBBBAAIEBAeuUralsQcjTuLkIeRponIIAAggggAACMQX8yBaEPI0bzo+O0KgGpyCAAAIIIIBAkgj4kS0IeRo3hx8doVENTklSAXkA9/z584+ePXt2VUZGxslZs2b90MsqK8qLLz9128rWCadOnfpCT0/P7MmTJx+aOXPmThNbMMnCsDNnzvwXuc4dd9zxP++8807Pe3fKPfTuu++uvXDhwpKsrKxf5efnv+DlnlQG8sagd9555wvXrl27JScn56DJTWCd/ngw3Q+pVp44m26zn5+ReK6rH9mCkOf0J4HlOD86QqManJKEAq+99tqPL1y4sNz+FhV5PiMUCn3N7QaZlPefN0m8+EldJNi89dZbX+3s7FxhvYVlE9TJkyfvnz179nqdsCdv4Dl16tTX7JuryuKwWbNmfUMnQEm4O3ny5PYzZ848bv+45eTk7PvkJz/5NZ2w9/bbby/6zW9+8w376yDFIC8v7/vhcHiz3x9v0/2QauX5eS+btkyUuvqRLQh5Gj9J/OgIjWpwSpIJyJf0iRMnfhyrWW4fxKW8oZJj7adqI8E7WmhS/67zWiP79gv2e0jC06JFi+5wGx4bGhqesm7Sai93xowZzz344INPuP0o7tu3r9UeRq1llJWVlZsYgRyuXqb7IdXKE1vTbfbzM5IIdfUjWxDy3P50CgQCfnSERjU4JckE7G9Ryc3NlVGfIa10sycj5cWXn3RktDBm72edbZnsYWzSpEkD983Fixev3z86m7bbw1i0e3Lp0qW3uAmPMopXV1dXoyo2ceJE2YpqSF11w6PTHwmm+yHVyvPzXjZtmUh19SNbEPKc/lSwHOdHR2hUg1OSSECeE3n55ZdPqSZVVFQE5Iv6448/DrzwwgvXW+p07yTKiy8/1YH2MLZq1arAjTfeGLh8+XLgpZdeut7PbkeyrGHsrrvuCsyb959vRDp27FjgrbfeGvhvt+HRHsYeeeSRwG233Rbo7+8P/PznP79e11mzZn3dzfSqdURF7vHy8vLADTfcEGhvbw/86le/ul6u2/Do5seB6X5ItfLE2nSb/fyMJEpd/cgWhDw3PxkGj/WjIzSqwSlJJGCfWl2xYkXgE5/4xEALjxw5cn1Ez+mUI+XFl5+6VWtqal5Uz+JJwJEwL38+/PDDwJ49e67f0W5G3eyB/lOf+lQgPz9/oCx7cHIzEhzri1HK/ed//udAb2/vwDXk2bzy8vJHnX4cYwXSnp6ewP79+7WDrtPry3Gm+yHVyvPD0M/PiOn+8auufmQLQp6bnwyEPA0tTnEiIFMUhw8ffkctuJBpsTlz5gS6u7sDv/jFL64X4fR5LcqLLz/VgfZXIsqI29SpUwMtLS3XR9zkWDdhzP6FK9OfCxcuHLhkbW2tdhizh8d77rlnIDyeP39+YIRQ/Zk3b97KoqKiF53c53KM9YtM/v+nP/3pQGZmZqCxsfH6LzNuRx2dXtuvfjDdr/FenjiarqNffZNIdSXkuf0k+3S8Hx3hU1UpNoEERnowWB6e/+xnP5vttEmUN1RqrP1UbUZadKDzPJp9ajXaPeJ2CljKGOke0glj9vAYra5uRjKdfh7sx5nuh1QrTzxNt9nPz0gi1NWPbMFInsZPCD86QqManJJkAiN9+bl99onyht4gY+2najPSitWFCxfOc7tVzkhfuJmZmceXL1/+nw/qufgzUnh0OrJsv+Rw4VF3JbCLZg0carofUq08Pwz9/IyY7h8/6upHtiDkuf3JwOpaDTFOcSogway9vf2xs2fPPqa2mJCRnRkzZuzR2VKC8gKBePJT94HaBFhtpSLBZtq0aT/1svG12vRaNhdW+89JuLvjjjt+qLNHnqqr2jz23Llzn5fHCdR+flKuThhV5apNm9UzijIqmJ+f/0NTm0I7+cyZ7odUK0+MTbfZz89IvNeVkOfkUzsKx/jREaNQbS6RYAIyinLrrbe+6WZ7iuGaSHnebgDTflIbCWa/+93v7tUJ8MO1Rr7M5N+9hLBo5fthICHygw8+uMV0Xd30tul+SLXy/LyXTVvGc139yBaM5Ln5STB4rB8doVENTkEAAQQQQACBJBHwI1sQ8jRuDj86QqManIIAAggggAACSSLgR7Yg5GncHH50hEY1OAUBBBBAAAEEkkTAj2xByNO4OfzoCI1qcAoCCCCAAAIIJImAH9mCkKdxc/jRERrV4BQEEEAAAQQQSBIBP7IFIU/j5vCjIzSqwSkIIIAAAgggkCQCfmQLQp7GzeFHR2hUg1MQQAABBBBAIEkE/MgWhDyNm8OPjtCoBqcggAACCCCAQJII+JEtCHkaN4cfHaFRDU5BAAEEEEAAgSQR8CNbEPI0bg4/OkKjGpyCAAIIIIAAAkki4Ee2IORp3Bx+dIRGNTgFAQQQQAABBJJEwI9sQcjTuDn86AiNanAKAggggAACCCSJgB/ZgpCncXP40REa1eAUBBBAAAEEEEgSAT+yBSFP4+bwoyM0qsEpCCCAAAIIIJAkAn5kC0Kexs3hR0doVINTEEAAAQQQQCBJBPzIFoQ8jZvDj47QqAanIIAAAggggECSCPiRLQh5GjeHHx2hUQ1OQQABBBBAAIEkEfAjWxDyNG4OPzpCoxqcggACCCCAAAJJIuBHtiDkadwcfnSERjU4BQEEEEAAAQSSRMCPbEHI07g5/OgIjWpwCgIIIIAAAggkiYAf2YKQp3Fz+NERGtXgFAQQQAABBBBIEgE/sgUhT+Pm8KMjNKrBKQgggAACCCCQJAJ+ZAtCnsbN4UdHaFSDUxBAAAEEEEAgSQT8yBaEPI2bw4+O0KgGpyCAAAIIIIBAkgj4kS0IeRo3hx8doVENTkEAAQQQQACBJBHwI1sQ8jRuDj86QqManIIAAggggAACSSLgR7Yg5GncHH50hEY1OAUBBBBAAAEEkkTAj2xByNO4OfzoCI1qcAoCCCCAAAIIJImAH9mCkKdxc/jRERrV4BQEEEAAAQQQSBIBP7IFIU/j5vCjIzSqwSkIIIAAAgggkCQCfmQLQp7GzeFHR2hUg1MQQAABBBBAIEkE/MgWhDyNm8OPjtCoBqcggAACCCCAQJII+JEtCHkaN4cfHaFRDU5BwJNAS0vL1KKiovOeCuFkBBBAAAEjAn5kC0KeRtf40REa1eCUFBJoaGgofuONN/7HunXrHvXa7Nra2orW1taVp0+fXrt161ZHPwOqqqq+VFlZ+T25toTDjo6OcEVFxT95rEtaXV3d3M7Ozvvy8vIOl5aWNnssb+B0sbKUlXbgwIHVy5Yt2x0IBD4yUb6UUVdXd6/8b1lZ2ZumylTlWK3dlC39cuHChT+KRCJF48aN+10wGGzxUj9x7OrqukvqUFFRsd+AX1pDQ0OR6htVvoH7aFgm6ave3t5pJq9jvcfkv0+fPr3I5D2sGiSf1b6+vpsN+V932rFjx4sefpaktbS05KhfEKX9PT090xcuXFjt5n4d6Vj5HBQXF79o8hdRPz+3I7XHyb/7kS0c/YB3UrlUOsaPjkglP9rqXkB+OB08eLDeaSizX0ECQHNz86Otra1P9PT03JOXl7ezsLBwr9MfzBs3bvxYXVvqcuLEia94+JIYCGIvvfTS4b6+vimqrhkZGb+eM2fOZi9fxtu2bft3aV9hYeF3wuHw9kOHDj0fiUQeGj9+/HsrV66c6/YL48CBA5+vr6/fJV65ubkHVd3kC0jqrYKv+x6NfYbV2mm51dXVf3bkyJGqYDD46vjx4y/LeefPn18h7d60adN0lwEtbcuWLWetfSPliUFxcfGzOsFR7plXXnnln6XM0tLSv5k4ceIZqa+UK/2+YcOGTzptq9vjpK8aGhr+Qa7zwAMPPKlTf+s1JXjV1NS8LJ+HXbt2fbu1tfVv1b/LfbdmzZovu62j+sXB8rlK27lz54/kFzH5N81+HPiFTD739vqIh+oHN583afuRI0d+Iv24YMGCyuzs7Ldqamr2yGdu6tSp+3R+Jmzfvv2V/v7+7Nzc3L1z5sx5Tn1G5XOwdOnSsNf+srbdw+f2+i+kfX19mePHj+/Oycl5o6ys7LjLz9awt4Yf2YKQp/Fp9KMjNKrBKSkkoBvyrKN28iWXkZHRKmxufxibDnkSxqQeKtRJSGlra3usp6enUPcLXxnJl08kEgk1NTVtCYfDa6ZNm3ZcAmVBQcGOVatWbXV628gX5N69e4+Hw+G/7u3tnSFfjOpL3MOXxcDlpb1SZrS6yHXchnnxvO+++75sD+0yYpOTk3PETRiVtl26dGn22rVr/6q6unp5fX39DyQoVlVVfbGzs3OB23tH2rhnz56NbW1t6xYsWPAX1pAg/yZhr7KyMmRqJNduqvpK/r6pqemrwWCwbsaMGf+iO9Ip5ckXvdxLW7ZsOT9lypSX5s+f/3evvvrq9yKRSJlGqB6osvWXJxWKH3nkkUUymipGEsrc9KOUKb9MVVVVNclnv7Cw8MfKRjfk7dy589n33nvvEenHpqamv5TP6/Lly5fU19evl7C7evXqaW5+kZJfok6cOPHNhx9++DP19fXf6O3tvVvaLPeCbshTsx7RPltSX3Fw6yhhvrOzs0L9/JSypSz5X92fV9Hq50e2IOQ5/YlvOc6PjtCoBqekkIBuyJMflNYRDPmC0vmiNhnyJDzt3r37XLQvBPnSlC8QpyOM1ltAglNjY+PmDRs2zJG/37hx44dqJEC+nG6++eZ33YQ8W3kfqS9eFfrkGm6/LFR9JXxJIJDAYb+NZQTOTcgbzlO+RNva2tasX7/+YacfF6nbzTff3D44IpW2bdu2xuLi4u/KlPeOHTt+rhPy5Evy2rVrt65du/ZJ6YtIJHKv9JNM+6kg7WZEyWlb5DhrIBerxsbGxzs7Oz8tI7yDfegqYKqALn0v4Vr9oqJ+KTAV8qyj5WKWlZV1Uud+k9BTW1v7jzLC+9BDD31JQpjOaLFYWe8N688SFSbdjrxJeenp6ZflvrD+MiBBT8Kp2/KswTYUCm2SETfrvSI/+9z+0qNmHaLMBAx8NrzOPljr50e2IOS5+WkxeKwfHaFRDU5JQgH54Ttcs9x8+Vt/aKanp78v0yH9/f23XLlyJd/tF7X6rVrKlGe+JDiEw+Gvyf+/6aabet2MwgwXWHVGnpSXCjtq2kiuI1M9MoqkRvWWLVv2Uxe3TZoERZkCtYSkgWk0Gc0IhULf1PnStX4RRRvB0vkClhB16dKl0oKCgl0yQiXXkGcdZeRKRkncTHlZp6gljMlUnNTzrbfeqpTRuE2bNk11YagOHZgClvtQ/iI9Pb1L/YOEra1bt95octrLWr9hRl3TamtrF02ePPk3bkafVNiXEbz+/v7bJJTLCK+M9OiMEqm6Srm//OUvn5UyZKRQ7ln5vKvpYRmh9hKE1WhqSUnJV+URBLc/S1RgllHA8vLyxeJ29erVW0tLS1u2b99eI6Nwbu8Nda9JeeoXO3GQUT25L3RCntRTQrH8rwqPylhnBF7833jjjW8P/vI45LleL+E72mfIj2xByNP4aeVHR2hUg1OSUEA9GByraW6+rK1lqOlQ9ZyWjEa5eZh7uPDp9lkc9UM82uiShJWMjIwzuuFJfiCfPn263PpclG1kytVdI3WVsGSvj1ynu7s7x2VoHHJtGSGYMGHC7+wBQ2fhhRqhunz5conqYzUtqVHHtD179vy3jo6OlRLGJDhKGVKvweeQtBab2MzSdu3atU2CaWlp6TadkVunHanzxe6g7DSZyu7o6FgqQTgnJ6daRtq8LPBRz8/19PTMkF/EpA7yy5h1ethBvYY9RAVJCe46IS8QCKTJtL1cxPKZGAjwgz9T3C7GGihPntG0BdiBe3DmzJnVmj/zBp6hs5+ru/BCjThKH8svUfKLrvRTR0fHY7ojt4Q8r3ezj+cT8nzEpeiAfBkuXLjwsBrZkB9MbkfLYjFKsDh58uR/lR9Ocozb37xNdI8ayYtVls6zRyPVS75A5Rg3IzbDlWm6POu1dEbyhqnrkBWtIznx7ykhEDUApUTLNRspPzdlJFt+iVKPWdx2220npk6d+qbJX1D8yBaM5Gl0uh8doVENTklCAbVK0jpNIaNbEsp0n1VTTLaRo4GRCKfTP9bRpcHtI2RK8CP1w8/Ns24yGiC/ZcfqvqysrLOmwpi6hunRHK/lidsHH3wwMZqBl1XU9vJMrIROwo8ZTUIgLgX8yBaEPI2u9qMjNKrBKUkooLYTsK3YGpgOkWeA7M+YOCFQz6SpY+3bgTgpwzq6JFMXJSUl35KpkHgKEbG2i5D26Txwbbo8q7MYyrRqLHs3U2nD1VNN/bl9BtPJPcExCCSSgPwcXLVq1d/79eynCQs/sgUhT6Nn/OgIjWpwShIKxNo2QEb4BreycPXQu3poW56bk2Amm8LKClR5JsfNdgcmQ55f07WqXGmr/dbQ2TrBdHnWOskD583NzU9He5jb7XStWtlo3SNPXauvr+82WVVJyEvCHxY0ybGA+kVXfsHV+UU52oUGQ6PjLZmcVNaPbEHIcyJvO8aPjtCoBqckoYB8wVtXmqkm6myFIefKiJE8O2KfTnW7pYjJkBet29TeVvK8i5dpaRkJnTlz5n77Qgnd6VXT5VnbLtPweXl5NfZnetyGPClTvnDkeSF7mIunkdYk/LjSpAQRUJ+DUCj0v0w9Q+fxrSFR5fzIFoQ8jZvUj47QqAanJKGA/OCQZq1bt+7P1bSCTMft37//kM5+TLH2nZPQI2+/cLqRp48hb2B1nWzLIL9ly6ayXp7HU1OX9pAnI6Hi6vQZRHVrmS7Px1t2wNH+GijNZyZ9rCZFIzA2AqZDmenyRMWPbEHI07jf/OgIjWpwShIKWF/3JdOOMt0m+0UNvvpJNvl19f7VWNO/1lczOWGUctQ0qIy2TZw48bcyDehlOlBt5yDXj/a2Bif14hgEEEDAiYDpUGa6PEKek14cpWMIeaMEnaKXkdGj1tbWRfJqqfT09N/fdddd8kqjZh0OCWexntUa3ITW0S961ldD2esRZY+rkap6/b2csit9vD8MPVJj+HcEEIh/AdOhzHR5hLw4uocIeXHUGUlYlcEtSlSoSztw4MBqef+qTtAbLpwJne6mw1Z2CaVupljVggbru3St5RUUFLzgdlo1CW8DmoQAAgYFTIYy67tsTS5q8iNbOPot3qBzUhR19OjRZ9rb29dLY7Kzsw8vWbKkPCkaRiPGXEC95ke20FDvwuzr65siFfP6WiPVOOs+d04brN5SIccvXLjw/x0MnAO70kd74H+Eckd9nzyn7eQ4BBBITgHbL8+eGql+UTX1M1lVhpDnqVvMnXzo0KGarq6uRVJifn7+9vnz5z9lrnRKSmUBWSghr6NSrzN69913l69fv75cHqp3s1BCGar3bA6+2SJNXjCvXnvl5p2m8luwPIsne/XJe1vlFUayFUt/f//tXlbDSj0lzF66dGm6/LcfGyGn8v1E2xFAwB8BtzMYTmpByHOi5PMxkUgk8+DBg79XlwmFQk+XlpY+4/NlKT5FBOQZOrV/nQSrnJycIzKlKj9QXn311e+5nRrYtm3bvwudrKJVe+1JKJP3u8r7MZ2WZ93aRbZfOX369Fovz9PJwo/W1taVsmeVTCnL6lqpp7zo3fre2RTpdpqJAALmBNIGi4q2SC2uX+lGyDN3E2iXZJ2qlUIWL148a9KkSa3aBXIiAhYBCVPhcHhNYWHh4d27d5+rrKwMydSo7n5n1tW11tAoUxe1tbX/uH79+oeddIB1CxUJZfIGCacBMUr5aRs3bvxQVuuqEUs5Rrb/kDZv3br1RreriJ20gWMQQCD5BdSjJZbHSgYaLb9YHjly5CehUOibLp9FHrXQSMgbw/vz4sWLhWfPnl3W1NT0XVWNzMzM48uXL583htXi0kkmoKZFpVnp6envD+5jl7Z9+/aaaJv8jtR8a8iz7pmnNh92GtRMhjz1PIt6P691o2LZfDgUCn2fhRcj9Sz/jgACMQSur96XX5iXLVu2W54dbmpq2qIz++BDaIzZcaMe8lSwuXbtWmaq3k7S9gsXLiy7evVqgdUgPT09cv/99/9Jbm7u8VS1od3mBWRatr6+fmBRTzgc3i6rVuU30IaGhg3230ydXF1N16anp3f19vbePfhsXkBWh8n2LPY3YcQq07pPnuyNJ2XJs4NyfLQ3agxXNwl1g88aDowiSpvlf6Wt8uaGK1euzDT16iEnRhyDAALJJ6BG7tQvzA888MCT8r5tjZYaDY3DXX/UQl5HR8fcxsbGH3Z3d8/VAEmJU0pKSp6YPXv2cynRWBo51gLDTRcMWzfrhsPqh5z12Tynr/gxuU+eGsmL9u7cWG/oGOsO4PoIIJBYAmrRmQp55eXlq3S2oVKtNhgaY0KOSsg7efLk483Nzd/q7+8PJlaXjk5tZcuU/Pz8HxUVFQ28foo/CCSagHXkzGvdJTD29vbOcPmMS0BGGDMyMloH3yV5uLa2dpEsBuno6HhMjTZ6rRvnI4BASgoMbO0k07OlpaV/U1lZ+X3b//+ejorp0BitDr6HvJaWlkePHTu2135xCTY6KMlyTkZGxsns7Oy622+/vToYDHYnS7toBwI6AhISGxsbH29ra1sne/gN/iB19YPT+vo2VQd5d21hYeFep6OLOnXnHAQQSG4BFcbsW0R5WXjhR2gck5Bn3f9NKiB7wN19992bCTbJ/aGgdQg4EZBRu7a2tsfUPnvy/lrZw8/LSli1R15ZWZk82+rqvbxO6swxCCCQWgJvvPHG9LS0tFvuvffeJnvL5efNhQsX/sjNL5I+hMaYHeLrSB77v6XWB4HWIuBGQJ6Vk+MLCgp2yLt0T58+vcjjNipuLs+xCCCAgCMB3e2mYhU+uOlxZ7RfQnVC43CN8DXk2adq2f/N0f3EQQikhIA8QydvtyDkpUR300gEElbAdMgbhIj6DnGZAu7u7s5ZtmzZT02A+RryrIVPmDChbcWKFYUmKk0ZCCCQHALqLRXytovx48e/Z2K6NjlkaAUCCMSLgNpRoLCw8MfR6pSTk/OG261U5Jfcnp6ee6Q8eV9tbm5u/dGjR78uPwtNvr921EKeLLRYsmSJPGvDHwQQQGCIgImFF6ZJn3/++Y9Nl0l5CCAwNgKf+9znbtC9snqGTu3jaS+noKDgBTebrastnyTMSVlHjhypUr/k6uxdOly7CHm6vc55CCDgi4DuFiqmK0PIMy1KeQiMnYDXkHfixImvOH2bz0ittE//yluJ3G4AP9I11L8T8pxKcRwCCCCAAAIIpJyA6WfyooW8kpKSb7md8nXSEYQ8J0ocgwACCCCAAAIpKSCPk3R0dITdTMkOB6XeXRsOh78mx9XX13+joKBgVzAYbJH/n5WVdVZeyWgCm5BnQpEyEEAAAQQQiCMBCSavvvrq93Jyco64fXuMasbOnTuflf/mvc9mO1Y9kxerVJ3N4GOVRcgz23eUhgACCCS1wJ49ezZevny5RBqZnp5+OSsr62ReXt5h+zs85TmjaBDRHlKX5zAbGxtlk/w3c3NzD1ZUVOxXe4ipDbOjlaWekYp1LXWO/ZqqzFgBSMpz+zB9tPrZ6yXPXc2cObNaTctJiLr55pvfXbVq1dZY50sdJ06ceEY2DZ8xY8a/WLbWSNuxY8fP5bxoz4pJ2bJSs7KyMqT7flVxkkUBJkNHUn844rBx8lrZEydOXF8V7OXZRNW86ytY/EiQcWhIlRBAAIGUEZDgIm8omTp16r5IJFImr6GTxtuDgAo46hg5Xo6zhie1NYVsJREMBl+NRCIPyTHyOjo1emQNeerNKGqVY7SQZ7+e/Zry/9X2FbKicdOmTdPtm9Ju3LjxYxPBRsqRa6j6Sv2t7VOWW7du/YOVn/Kavqqqqiaph5zT0NDwDxkZGb/esGHDJ+X/qwAm/20/X7YmqqmpedlEG1QdV69ePc3UFGLKfFjioKFvv/32orq6uhpVFUJeHHQKVUAAAQTiVcAWTNKqq6uXNzU1fVEC2tKlS8P2h8eHCzLybxLKwuHwX8vzTmqrCgmO5eXli+2vipLQJGFxuFWOw11vMCwNhCcJkrH2JDMZ8uz1VSNsEprkfc3y0vutW7feaA+a1m02ent7ZzQ1NX1VXJSxKidayJMQK3+vAqGXe0mmfXfv3n3OGry9lMe5oyvQ0dExt7a29pi6allZWfmdd9552EstGMnzose5CCCAQBwLRAtRalSmIjvpAAAgAElEQVSpsLDwO2vWrPmytfrDha5ooU1ChZwfbdTIRMjbtWvXt1tbW/9WgtW2bdsaZYrY/syZnyHPOgWqRuhUcKuqqvqSTM1K4D1w4MDn6+vrd8m/dXZ23iev/Ovr67stKyurYc2aNRs2btz4oRr9tI3kpcm/mQxlEhrT09O71q9f/3Ac35pULYbAvn37Wq9evVog/5yfn799/vz5T3nBIuR50eNcBBBAII4FooU2NdoTbZQtVsizTkc6XRhgIuTJO5OnTJnykgQ7eb5QRtLsU5F+hjwVMuWaly5dmn7w4MF6GbXMyMg4KyOMg1PIUyXwyRStBDj5bwl58kzeiRMnvllSUvLV5ubmp+UNDOoYdcuoEcBYU7XSV62trYuuXbt2q6zmXLhwoYzqfBQIBNLq6urmRtvGQ40aRptWjuNblaoNCrz22ms/PnPmzOPyf028fYyQx62FAAIIJKlArNAm4WnwtXRDRntiHW9/qN++wOK+++777/YFA15Dnrqmem2UCprhcHiN9V2hJkOePEcnYayvry+zo6NjpTx/qEbZVDiWQDZu3LjfSXCTf5fRu+bm5iffe++9RzZt2jQQ+GS6duXKlXNl6lRurVAotGn8+PHd9pCnwmG0qXM5T9omdZL/Vq/VkhHB3t7eu+XZwWhT4SOVmaS3etI0q6Wl5dFjx47tVQ1avHjxrEmTJrXqNpCQpyvHeQgggECcC5geyVNTvCrkyZRkrOf7vIY8NSKlApJQ2xc0qCBkYtGCfeHFzTff3J6Xl1djGT0bCF1yrUuXLs2WoNfZ2VkhoVBG7qQuErqso3rKX1bNnj59epE95KnRyWjP+Q22t9gSntNqa2sXRSKRosFp4uurmq23oRodtIfhOL9Vqd6gQCQSyTx8+PA7/f39QfmrGTNmPPfggw8+oQtEyNOV4zwEEEAgzgVMPpMXbfRPBYpoI1FeQp4aNZNRrIyMjOujGD09PYUyomXdasTkSJ6ThSLS5WoBSiQSCckWNVKv3NzcvbK9ijXkiY88oydT3Na/V7eNH6Nu1ucD/XgrQ5zf8klRPeuUbXp6emTRokV3BIPBbp3GEfJ01DgHAQQQSAABe8iTETjd1bVqZM26ktavkKeCin3VrpqytS4aGc2QJwYyLSsrZ+U5vQsXLvyRbH8it4IaTYwW5uTfo/29H6Nu1sUq9lXACXDLUsVAIHDx4sXCl19++ZTC8LIAg5DHLYUAAggkqYB1nzw1CiajY8XFxd+1Ptfmdp88GfGSzZVlWxOhUyNrTvbJs1LHegZQVoj29/ffLs+42bvG/m/quTXriJ+c4/Yl8k5GHlVQs+yBN7A6Vq5nXXVrn5aNFfLUiGW0lc66t+T27dtf6e/vzzaxJYtuHTjPu8ChQ4dqurq6FqmSFi5cOC83N/e425IJeW7FOB4BBBBIEAH7Gy8KCwv32vezk6aM5hsvrHSqftYFBCO94ksFSbXYI1bd3YY8KWekc9TL6q1v35CRsytXruQ/9NBDX5KtZFT97IsiYv19rEUwmrfYQOgcadpZs2xOG0UB+2hednb24SVLlpS7rQIhz60YxyOAAAIIIGBIQI0OqlXEXopVCzlirdb1Ujbnjr6A9U1kcvWSkpInZs+e/ZybmhDy3GhxLAIIIIAAAoYFZIpVtkWJ9to2p5dSz/eZnPp1em2O80dAVtq+9tpr/6Y2R9ZZhEHI86dvKBUBBBBAAAFHAiYCmomg6KiyHDSqAvZ989wuwiDkjWp3cTEEEEAAAQQQQMC5gJdFGIQ8584ciQACCCCAAAIIjKqAl0UYhLxR7SouhgACCCCAAAIIuBPQXYRByHPnzNEIIIAAAggggMCoCuguwiDkjWo3cTEEEEAAAQQQQMC9gM4iDEKee2fOQAABBBBAAAEERl3A7SIMQt6odxEXRAABBBBAAAEE3AvYF2FkZmYeX758+bxYJRHy3BtzBgIIIIAAAgggMCYC9kUYoVDo6dLS0meiVYaQNyZdxEURQAABBBBAAAE9gX379rU6eRMGIU/Pl7MQQACBRBNIq6urm2ut9E033dRbWlrabKoh8uYGe1llZWVvDlP+H9RJjs3KyjpbVFR03kC9/qB8g2UHGhoaint6eqZHIpGiaHUdN27c74LBYEtZWdnxQCDwkYH2UAQCAwJvv/32orq6uhrFEetNGIQ8bhgEEEAgBQTUq7OsTZ06deq+devWPWqq+Rs3bvzYXtbWrVuvf8/Y/y1aneSY8ePHv+flPa7qOtHKLy0t/ZvKysrv6ba5urr6zzo6Opa+9957j/T19U1xWk4wGHw1JyfnF3PmzHnOUIB1emmOS1KBmpqaFzs7O1dI82K915aQl6SdT7MQQAABq0AihTypdygU2rRq1aqtXnvRHjw1Q15adXX18sbGxs09PT33eK1TYWHhd8Lh8HbCnlfJ1D6/o6Njbm1t7TGlMGvWrK+Hw+HNVhVCXmrfI7QeAQRSRCDRQp50y9KlS8MjTPeO2HteQ55MydbW1v5jJBJ5aMSLuTxAM3C6vAqHJ7OAdUsVGc377Gc/m03IS+Yep20IIIBAFIFRCHlpGzdu/NB+aZ3pWlWGTHGuX7/+YS8d6iXk1dbWVhw5cuQnw03LytRyMBisu/nmm9szMjLOqLp2dnYu6Ovru22kcCijemvWrNnAM3teejl1z7U/mzdv3ryVRUVFLyoRRvJS996g5QggkEICfoe8WM/XeQl50j1eR7t0Q16s9qhbJi8vb2dxcfGzI400trS0TO3o6AjX19f/IFZYNP1sZArd1jQ1EAjs37//WHd398CiKvsCDEIetwgCCCCQAgKJGvJkpGzlypVzdZ9f0wx5aVu2bDkbLZRJfRYsWPAXCxcurHZz20jYe/XVV793/vz5gQfl7X+8hlk3deHY5BI4evToM+3t7eulVfbNkQl5ydXXtAYBBBCIKuB3yJOLmlhdK2GnoaHhH6yN8DLSpRPyduzY8WK0MCb1eOihh76kGzilTVVVVV+yt0+11cQziNz+qSdgf6ft4sWLZ02aNKlVJAh5qXc/0GIEEEhBgUQJeVu3br1x27ZtjfZVrOXl5Yvdjp5FC54jjZjFmqaV6dm1a9c+aeLWiXUNL2HWRL0oIzEFIpFI5sGDB3+val9WVlZ+5513HibkJWZ/UmsEEEDAtUAChbwbotVVd+88tyN5sUbxVq9ePc3LCJ69w0brOq5vFE5ISIGf/exnXf39/UGpvPU1Z4zkJWR3UmkEEEDAnUAihTxp2c6dO589ffr0WmsrdfbOcxPy5Lm53bt3n7PLDq6A/bI78eGPjjWa58e1TNabsuJTwLqVinW/PEJefPYXtUIAAQSMCvjx9gd7BU08k2dZjRt18YPb59bchLwDBw58vr6+fpe9XaZH8VT50YJsRkbGrzds2PBJo51PYUkvYA151hW2hLyk73oaiAACCAQCCRjyAtFCl9u989yEvGihy8+RtVgjh36FSj4HyStgXWGbnZ19eMmSJeXSWkJe8vY5LUMAAQSuCyRiyJPKR3t2baTFE9ZudxPytm3b9u+mFnw4vfWiXXPBggWVFRUV/+S0DI5DoL6+fvOpU6f+TiQIedwPCCCAQIoJJGrIk9eKVVVVNVm7y83eeW5CXrTpZr9H1aKNHroJsSl2G9PcGAKEPG4NBBBAIIUFRiPkbd++/RX7a7zcvvEi2vHR9pZzut2I05Cn88YOE7dTtLb5OUVsos6UEX8ChLz46xNqhAACCIyawGiEvGhTqyZCXiAQSNPdO89LyHMaJL10YrTnDkfjul7qzLnxJ0DIi78+oUYIIIDAqAmMRsjzayRPkHT3zov3kDcaW9uM2k3GhcZMgJA3ZvRcGAEEEBh7gdEIeYa3UPkDNJ298wh5Y3/vUQP/BQh5/htzBQQQQCBuBZIh5Mm07ZYtW8729fVNsUJXVlaGSktLm6PhE/Li9pakYgYFCHkGMSkKAQQQSDSBJAl5rvfO8xLy3O7Jp3NP8Eyejhrn2AUIedwTCCCAQAoLJEvIky6MtsAjHA6vWbZs2U/tXew05EXbqkXKGm7hiInbKdrqWrZQMSGbWmUQ8lKrv2ktAgggMEQgWsjLy8vbuXbt2idNUOmEpGh1chKq3Oyd5zTkiUG0ZwqHmwo24cY+eSYUKYOQxz2AAAIIpLBAtEBlcjqyurr6z44cOVJlJR7pPay6IU+uEW0ELFpodRPyxuLtE9Gu6fb9vCl8W9P0QQFCHrcCAgggkMICfm/2q7NhsZeQ53TvPDchb9euXd9ubW39W+tt4ufGxLHeXbt169YbA4HARyl8u9J0lwKEPJdgHI4AAggkk0CsQGFqOjLac3IjberrMeRF3TtvcPRwjgpJbkJetNFIuQf8Cl3RgrHJ0dVkun9py/AChDzuEAQQQCDFBaI9c2biIf9YAXKksr2GPOnOkfbOcxPydNuhe1tFm6odyUz3WpyX3AKEvOTuX1qHAAIIjCgQ7Y0U48ePf2/Tpk3TvUwPRpvmlMqM9GyZiZA30t55bkKe1DlaW8Ro5cqVc4uKis6PiOzwgGijeCb6wuHlOSzJBAh5SdahNAcBBBBwKxAtWEgZCxYsqKyoqPgnt+XJ8bFGv+TfRlopayjkDbt3nn20bKSRslirhAenUcu9hGHlG+safj7/p9O3nJM4AoS8xOkraooAAgj4IhArkMlzbMuXL1+iMVKVtnPnzh+dPn16rb3CTgKLqZAn1461d96ZM2f+9Pz58ytU/UYKeXJctClg+XtxKi8vXxXr7RpOOi3a5sdynh+jhU7qwzHJIUDIS45+pBUIIICAJ4HhQsbDDz/8mbKysjedXEAC46FDh56PRCIPRTt+9erV00YKjSZDXqy989LT09/v6em5x03IizUFrMqItfHyCG4xA7GcV15evnjhwoXVTuw5BgG7ACGPewIBBBBAYEAg2qiXLcDsHm5aUlah1tfX/8D+DlmXQSrq6tiRpniH68JY09HWc5yM5MnxsbacUWXJnnyFhYV7HQSztOrq6uWNjY2brWHTWqdQKLRp1apVW7k9EdAVIOTpynEeAgggkGQCMgq3d+/e47FCmjRXQkxWVtZJa9N7enpmdHR0PDbceU6maVWZJkfyBstM27ZtW2OsMCXHOA15cmxtbW3FkSNHfjJce2WaNRgM1t12220nxo8f363aJlZXrlzJt04VR7uNCHhJ9uEao+YQ8sYInssigAAC8Sgw0micTp3dvibNh5A34gicm5AnBjIN/NJLLx0eLujpWMk5Xha86F6T85JTgJCXnP1KqxBAAAFtAQkwtbW1/xjruTqnBctoVjgc/mu3K3T9CHlS51gLJ9yO5Fnan1ZVVfXFpqamr5oIezLaGQ6Ht4/0zKJTf45DgJDHPYAAAgggEFVApiWbmpr+cqSpRfvJstq0uLj4u8uWLRv2Gb5Y7H6FvOEWTrgdybPVfSDsvfvuu8vdBmOxysnJqSbc8SH0Q4CQ54cqZSKAAALJJZBWW1u7KBKJFF26dGl2f3//bfbm5eTkHJk4ceKZ3NzcegMjUWl1dXVzrddwurp3JHYZpfzggw8m2o/Lyso6a6DeUuzAgore3t4ZfX19mZcvXy6xXis9Pf2yPNM4bty4302bNu24l21XRmor/44AIY97AAEEEEAAAQQQSEIBQl4SdipNQgABBBBAAAEECHncAwgggAACCCCAQBIKEPKSsFNpEgIIIIAAAgggQMjjHkAAAQQQQAABBJJQgJCXhJ1KkxBAAAEEEEAAAUIe9wACCCCAAAIIIJCEAoS8JOxUmoQAAggggAACCBDyuAcQQAABBBBAAIEkFCDkJWGn0iQEEEAAAQQQQICQxz2AAAIIIIAAAggkoQAhLwk7lSYhgAACCCCAAAKEPO4BBBBAAAEEEEAgCQUIeUnYqTQJAQQQQAABBBAg5HEPIIAAAggggAACSShAyEvCTqVJCCCAAAIIIIAAIY97AAEEEEAAAQQQSEIBQl4SdipNQgABBBBAAAEECHncAwgggAACCCCAQBIKjBjyGhoanmpqavquavvSpUtvCQaD3UloQZMQQAABBBBAAIGkERgx5F28eLHw5ZdfPqVanJ+fv33+/PlPJY0ADUEAAQQQQAABBJJQYMSQJ23ev3//se7u7rmq/aFQ6Onp06cfmDRpUmsSmtAkBBBAAAEEEEAg4QUchbyOjo65r7/++r/29/cHrS2eMGFC2+TJkw+MGzcuZadvpe0E3oT/HNAABBBAAAEEkk7AUciTVp88efLxEydO/DjpBAw1KDMz8/icOXO+kJube9xQkRSDAAIIIIAAAghoCzgOeXKFlpaWR9vb2/+qq6trkfYVk/jE9PT0SHFx8Vdmz579XBI3k6YhgAACCCCAQAIIuAp5qj2RSCTz/fffr+jq6irr6emZnQDt9K2K0QLvvHnzVhYVFb3o20UpGAEEEEAAAQQQGEFAK+Sh+v8LSOD97W9/u7m9vX29+tvs7OzDS5YsKccJAQQQQAABBBAYKwFCniF59hM0BEkxCCCAAAIIIGBEgJBnhDEQsO8nyJStIViKQQABBBBAAAEtAUKeFlv0k/bt29d69erVAvlXNo02CEtRCCCAAAIIIOBagJDnmiz2CUePHn1GPZvHc3kGYSkKAQQQQAABBFwLEPJck8U+IRamwUtQFAIIIIAAAggg4EiAkOeIydlBhDxnThyFAAIIIIAAAv4LEPIMGhPyDGJSFAIIIIAAAgh4EiDkeeIbejIhzyAmRSGAAAIIIICAJwFCnic+Qp5BPopCAAEEEEAAAYMChLxRwDR4CYpCAAEEEEAAAQQcCRDyHDE5O4jpWmdOHIUAAggggAAC/gsQ8gwaE/IMYlIUAggggAACCHgSIOR54ht6MiHPICZFIYAAAggggIAnAUKeJz5CnkE+ikIAAQQQQAABgwKEvFHANHgJikIAAQQQQAABBBwJEPIcMTk7iOlaZ04chQACCCCAAAL+CxDyDBoT8gxiUhQCCCCAAAIIeBIg5HniG3oyIc8gJkUhgAACCCCAgCcBQp4nPkKeQT6KQgABBBBAAAGDAoS8UcA0eAmKQgABBBBAAAEEHAkQ8hwxOTuI6VpnThyFAAIIIIAAAv4LEPIMGhPyDGJSFAIIIIAAAgh4EiDkeeIbejIhzyAmRSGAAAIIIICAJwFCnic+Qp5BPopCAAEEEEAAAYMChLxRwDR4CYpCAAEEEEAAAQQcCRDyHDE5O4jpWmdOHIUAAggggAAC/gsQ8gwaE/IMYlIUAggggAACCHgSIOR54ht6MiHPICZFIYAAAggggIAnAUKeJz5CnkE+ikIAAQQQQAABgwKEvFHANHgJikIAAQQQQAABBBwJEPIcMTk7iOlaZ04chQACCCCAAAL+CxDyDBoT8gxiUhQCCCCAAAIIeBIg5HniG3oyIc8gJkUhgAACCCCAgCcBQp4nPkKeQT6KQgABBBBAAAGDAoS8UcA0eAmKQgABBBBAAAEEHAkQ8hwxOTuI6VpnThyFAAIIIIAAAv4LEPIMGhPyDGJSFAIIIIAAAgh4EiDkeeIbejIhzyAmRSGAAAIIIICAJwFCnic+Qp5BPopCAAEEEEAAAYMChLxRwDR4CYpCAAEEEEAAAQQcCRDyHDE5O4jpWmdOHIUAAggggAAC/gsQ8gwaE/IMYlIUAggggAACCHgSIOR54ht6MiHPICZFIYAAAggggIAnAUKeJz5CnkE+ikIAAQQQQAABgwKEvFHANHgJikIAAQQQQAABBBwJEPIcMTk7iOlaZ04chQACCCCAAAL+CxDyDBoT8gxiUhQCCCCAAAIIeBIg5HniG3oyIc8gJkUhgAACCCCAgCcBQp4nPkKeQT6KQgABBBBAAAGDAoS8UcA0eAmKQgABBBBAAAEEHAkQ8hwxOTuI6VpnThyFAAIIIIAAAv4LEPIMGhPyDGJSFAIIIIAAAgh4EiDkeeIbejIhzyAmRSGAAAIIIICAJwFCnic+Qp5BPopCAAEEEEAAAYMChLxRwDR4CYpCAAEEEEAAAQQcCRDyHDE5O4jpWmdOHIUAAggggAAC/gsQ8gwaE/IMYlIUAggggAACCHgSIOR54ht6MiHPICZFIYAAAggggIAnAUKeJz5CnkE+ikIAAQQQQAABgwKEvFHANHgJikIAAQQQQAABBBwJEPIcMTk7iOlaZ04chQACCCCAAAL+CxDyDBoT8gxiUhQCCCCAAAIIeBIg5HniG3oyIc8gJkUhgAACCCCAgCcBQp4nPkKeQT6KQgABBBBAAAGDAoS8UcA0eAmKQgABBBBAAAEEHAkQ8hwxOTuI6VpnThyFAAIIIIAAAv4LEPIMGhPyDGJSFAIIIIAAAgh4EiDkeeIbejIhzyAmRSGAAAIIIICAJwFCnic+Qp5BPopCAAEEEEAAAYMChLxRwDR4CYpCAAEEEEAAAQQcCRDyHDE5O4jpWmdOHIUAAggggAAC/gsQ8gwaE/IMYlIUAggggAACCHgSIOR54ht6MiHPICZFIYAAAggggIAnAUKeJz5CnkE+ikIAAQQQQAABgwKEvFHANHgJikIAAQQQQAABBBwJEPIcMTk7iOlaZ04chQACCCCAAAL+CxDyDBoT8gxiUhQCCCCAAAIIeBIg5HniG3oyIc8gJkUhgAACCCCAgCcBQp4nPkKeQT6KQgABBBBAAAGDAoS8UcA0eAmKQgABBBBAAAEEHAkQ8hwxOTuI6VpnThyFAAIIIIAAAv4LEPIMGhPyDGJSFAIIIIAAAgh4EiDkeeIbejIhzyAmRSGAAAIIIICAJwFCnic+Qp5BPopCAAEEEEAAAYMChLxRwDR4CYpCAAEEEEAAAQQcCRDyHDE5O4jpWmdOHIUAAggggAAC/gsQ8gwaE/IMYlIUAggggAACCHgSIOR54ht6MiHPICZFIYAAAggggIAnAUKeJz5CnkE+ikIAAQQQQAABgwKEvFHANHgJikIAAQQQQAABBBwJEPIcMTk7iOlaZ04chQACCCCAAAL+CxDyDBoT8gxiUhQCCCCAAAIIeBIg5HniG3oyIc8gJkUhgAACCCCAgCcBQp4nPkKeQT6KQgABBBBAAAGDAoS8UcA0eAmKQgABBBBAAAEEHAkQ8hwxOTuI6VpnThyFAAIIIIAAAv4LEPIMGhPyDGJSFAIIIIAAAgh4EiDkeeIbejIhzyAmRSGAAAIIIICAJwFCnic+Qp5BPopCAAEEEEAAAYMChLxRwDR4CYpCAAEEEEAAAQQcCRDyHDE5O4jpWmdOHIUAAggggAAC/gsQ8gwaE/IMYlIUAggggAACCHgSIOR54ht6MiHPICZFIYAAAggggIAnAUKeJz5CnkE+ikIAAQQQQAABgwKEvFHANHgJikIAAQQQQAABBBwJEPIcMTk7iOlaZ04chQACCCCAAAL+CxDyDBoT8gxiUhQCCCCAAAIIeBIg5HniG3oyIc8gJkUhgAACCCCAgCcBQp4nPkKeQT6KQgABBBBAAAGDAoS8UcA0eAmKQgABBBBAAAEEHAkQ8hwxOTuI6VpnThyFAAIIIIAAAv4LEPIMGhPyDGJSFAIIIIAAAgh4EiDkeeIbejIhzyAmRSGAAAIIIICAJwFCnic+Qp5BPopCAAEEEEAAAYMChLxRwDR4CYpCAAEEEEAAAQQcCRDyHDE5O4jpWmdOHIUAAggggAAC/gsQ8gwaE/IMYlIUAggggAACCHgSIOR54ht6MiHPICZFIYAAAggggIAnAUKeJz5CnkE+ikIAAQQQQAABgwKEvFHANHgJikIAAQQQQAABBBwJEPIcMTk7iOlaZ04chQACCCCAAAL+CxDyDBoT8gxiUhQCCCCAAAIIeBIg5HniG3oyIc8gJkUhgAACCCCAgCcBQp4nPkKeQT6KQgABBBBAAAGDAoS8UcA0eAmKQgABBBBAAAEEHAkQ8hwxOTuI6VpnThyFAAIIIIAAAv4LEPIMGhPyDGJSFAIIIIAAAgh4EiDkeeIbejIhzyAmRSGAAAIIIICAJwFCnic+Qp5BPopCAAEEEEAAAYMChLxRwDR4CYpCAAEEEEAAAQQcCRDyHDE5O4jpWmdOHIUAAggggAAC/gsQ8gwaE/IMYlIUAggggAACCHgSIOR54ht6MiHPICZFIYAAAggggIAnAUKeJz5CnkE+ikIAAQQQQAABgwKEvFHANHgJikIAAQQQQAABBBwJEPIcMTk7iOlaZ04chQACCCCAAAL+CxDyDBoT8gxiUhQCCCCAAAIIeBIg5HniG3oyIc8gJkUhgAACCCCAgCcBQp4nPkKeQT6KQgABBBBAAAGDAoS8UcA0eAmKQgABBBBAAAEEHAkQ8hwxOTuI6VpnThyFAAIIIIAAAv4LEPIMGhPyDGJSFAIIIIAAAgh4EiDkeeIbejIhzyAmRSGAAAIIIICAJwFCnic+Qp5BPopCAAEEEEAAAYMChLxRwDR4CYpCAAEEEEAAAQQcCRDyHDE5O4jpWmdOHIUAAggggAAC/gsQ8gwaE/IMYlIUAggggAACCHgSIOR54ht6MiHPICZFIZCkAi0tLVObm5sfVc2bOHHimdzc3PqioqLz0Zqsjs/LyztcWlrarI6pqqr6kpxbUVHxT9HOU/8uZVuvZz3Wer4cb/23nJycN8rKyt5M0m5IyGbV1tZWRCKRIvu9II2prq7+s97e3hmVlZXfDwQCH8nfqXunuLj4Rfv9pfq7srLye3YMS1l/8G/2Y+Uara2ti4LBYMtw94uqu+59VVdXd29nZ+d90TpOtUEdY7+GtFX3ugl5o1gqTcgz2IOEPIOYFIVAkgrIF9HBgwfr7c3LyMj4dXl5+SoV5OTLs76+fn1ra+vfqmOnTp2677777vvvcsz27dtf6e/vz96wYcMn7WU1NDQUV1VVNZWWlv6NfLlFu56cI+WtW7duIHBu3Ljx42jkUka0IJCk3RPXzdq2bdu/9/T03JOXl7dz7dq1T1oruyjTrCoAACAASURBVGPHjhfPnz+/wtpf6l5bunRp2BrArPfgggULKu2/KKiytm7dekMskGj3p9zD991335cXLlxYrc6TwNjY2LhZ6q3+To7bsGHDHBVGnaBLUGtoaPiHaMeqeqpjBsu//rmQeztV72NCnpO7y+ExhDyHUByGQAoL2L941UhIfX39rsLCwu+sWbPmy8IjX7SRSKQsFAp9U0ZnqqqqvtjU1PTV9PT09yXY7dy589nTp0+vjfZFrK4hX+ATJ048JyHP/kVv7wL5IrSGPimjvr7+G5FI5KHVq1dPizXSmMJdOapNl5Gwmpqal4PB4KvSJ1u3br3RGpJUMBs/fvx7mzZtmi7/Fivk7dq169sdHR2Pyb0UDAbfjBUYhwt5Uob8AjJ4z26orq5eXl9f/4O+vr4pqm7qlw0JXXPmzNmcnZ39Vk1NzR4JfKFQaNOqVau2ukVUbYoW2qxBsLy8fLEKm4S8U38nztnZ2YeXLFlSLv8dM7277ZBUOv7o0aPPtLe3r7djppIBbUUAgeEFYn3xysicNVDZQ5cKfjJaI4FNpq5kZEMFMCn3pptu6pVRvgMHDnxeQqMcJ+fphDw5T0Zhjhw5UhUOh9csW7bsp/Tt2AlIqH/vvfceeeSRRxbJKK19BE5CXk9PT6EEKPVvMe61tC1btpzNzc19IT09/fdNTU1b7CHeyUie3K+9vb13b9q0aapSUSFL3S/W+9Aykpgmv7DoTp86CXkSKjMyMlqto9SM5BHyPH96Dx06VNPV1bVICsrPz98+f/78pzwXSgEIIJBUArFCnkzFSUNllE4dYx/tsH6Jjh8/vkcCmAS5rKyss7t37z6npqnUcTKiUldXN1c35KnRwsrKypD1ecCk6pDEaEzaxo0bP1QjvXKvpKend61fv/5hVX0JZuq/JexZ7yPrKK4K7jLSlZGRcVYCoz3EOwh5A/WxjvxafylQgUqN9tlHHb2QOwl5EnLVZ0PCJSN5jOR5uecGzo1EIpkHDx78vSooFAo9XVpa+ozngikAAQSSSkB9SckXqzys3tvbO62tre0x6/NUKqTZR2vUlJ31WTs5RoDUVJmMyhw9evTrMuojoyyxngGUc6yjG/JFKFN9wWCwbvBnWplMvUV7/iupOiQBGqNGxNQU5J49ezbaR+BUyAuFQv9LpnVjTdWrxwDUCJz1lwtrYJT7MdZ0baygpf5ehT/1DKH1mTl1jeEWDQ3XJU5CnoRKGa2cMmXKSzIVTcgj5Hn+mFunaqWwxYsXz5o0aVKr54IpAAEEkkogWuiS56xycnJ+sWrVqr+XZ6nUl7p9ikn9vRp5UV9ely5dmi1IEuzC4fBfS2iU/y/TVep6MgqUkZFxxoppnTKzhjx5FlACnvW5pqTqhARrjJoaffjhhz8zGMCLZDreOtKrQp70uRrpC4fDX7OO4srznzLiK8G9uLj4WSmrubn5SXm20zpaO9JInvWeUs+QSln2EWh7OdbFPfZRQKdd4jDk3aB+UZJfeqTNTNcyXev0Hhty3MWLFwvPnj27rKmp6bvqHzIzM48vX758nlaBnIQAAkktYB/Jk6lW+6KGWF+iagRHTb/Jl3lubu7etra2dSUlJV+9cOHCA+PGjftdZ2dnhfy9PNgea3rYjmx9BlCdwyje2N+KavFCtJpYV5FaQ56akpVgI89tqvtF3T/RyrIHxuFG8uR8uV/klxPrlLH9lxAVtOyLfqx1dSvsNOQFAoHrU9yyQISQlwAhTwWqa9euZbq9MUwfL3W4cOHCsqtXrxZYy05PT4/cf//9f5Kbm3vc9DUpDwEEEl/AYega+IKyf4mqxRnqGSc19SajbjISc+7cubnNzc1Py8P36kvN4fUGvrStoyvqeSpG88b2nlPBTE2/qtq0traulPCi+scenLZs2TKw76LcG9ZfCuTvHnjggSHbr/zyl798tr+//3Y1hTvSSJ6UIeVbV9LK36l7Rl1PPV5gf7Z0lELe9fpI3Qh5cRzyOjo65jY2Nv6wu7t77th+3Ea+eklJyROzZ89+buQjOQIBBFJRwGnoUl/uavsJtdeYdZsV6zHyoL111Ed90dpHDu3mZWVl8gvpR1FW8w6swpTj1ZYcqdhfY91mCVNq2xxrXdTUq7of7MHJup2I3AvXrl27VZ7Vi7Z1if2ZPxXy1Ops63XV/aJGC+U5ThlFPnPmzJ/K6J/1/pTRtG3btjXKLx3yC0RBQcELkUgkJCPP8uynWv3qxFjae+nSpemyGbTabqiwsHCvnKtW7loWHA3sEKKMCHlx/EzeyZMnH29ubv5Wf39/0MmNMFbHyP4z+fn5PyoqKrq+wmms6sJ1EUAgfgWchjxpgYS4y5cvl8h/R/kCDagvZ+sXqxphsW6tEmszZClXhcFoW7aokRjd56fitxcSo2bWhTbRNqS2juzu2LHj59IqS3AaCOlqJE+N/EVbKW19Vk8WKqiQF03JvlJXPf8p9+fgyLPswzbwxg31x7ohshwzc+bM/dHe2jFcr7jZDNm6YESNLjKSF4cjeS0tLY8eO3ZsIKlb/0igioePaEZGxsns7Oy622+/vToYDHbHQ52oAwIIIIAAAvEoIGGSTbVHt2fi+o0X1n3nhEX2nrv77rs3E6hG9ybhaggggAACCCCQeAJxG/LYdy7xbiZqjAACCCCAAALxIxC3Ic8+Vcu+c/Fz01ATBBBAAAEEEIh/gbgNedaKTZgwoW3FihWF8c9JDRFAAAEEEEAAgfgQSIiQJwstlixZIit2+IMAAggggAACCCDgQICQ5wCJQxBAAAEEEBhrgeeff/7jsa4D1x9e4HOf+9zAHn3x8oeQFy89QT0QQEBbQPbTvHr1aq52AZonyptvenp6Bt4by5+RBa5evZpnf0vQyGfFxxHx8OVNyIuPe2G4WsTDfWKtHyEv/u8ZaogAAiMI8OXHLeK3QLx9efvdXspPDgFCXnL0I61AIKUFJOSN1SbpWVlZv0ppfBeNHzduXPctt9zyaxenxMWht95665vszxoXXUElXAoQ8lyCcTgCCCCAAAIIIJAIAoS8ROgl6ogAAggggAACCLgUIOS5BONwBBBAAAEEEEAgEQQIeYnQS9QRAQQQQAABBBBwKUDIcwnG4QgggAACCCCAQCIIEPISoZeoIwIIIIAAAggg4FKAkOcSjMMRQAABBBBAAIFEECDkJUIvUUcEEEAgwQVaWlqmXrhw4Y8mT578m6KiovNem2O6PK/14XwE4lGAkBePvUKdEEAgKQUkmFgCTtqBAwdWFxYWHnYTeqqqqr506dKl2YWFhXsXLlxYnQBQadu3b6+JRCIPqboGg8FXQ6HQ9ysqKv5Jo/6my9OoAqcgkBgChLzE6CdqiQACCS4g4ayhoeEftm7dekNDQ0PxSy+9dLivr2+KNGvBggWVTgNPXV3dvSdOnPjK+fPnV2RkZPy6uLj4u8uWLdsdCAQ+ikeiXbt2fbu1tfVvCwsLvxMOh7d3dHSEGxsbN/f399++adOm6W7rbbq8eDSjTgiYEiDkmZKkHAQQQGAYgY0bN36cl5e3c+3atU/u2bNn4+XLl0vWrVv353v27PlvV65cmSl/7wZQRgWbm5sfbW1tfaKnp+ceCVEyuldWVvamm3L8PnbLli3nFyxY8Bf2UccdO3a8WFBQ8ILTcKvqabo8v9tP+QiMpQAhbyz1uTYCCKSEgIzcVVVVNa1evXqaTM1u27bt3+fMmbNZAo4amVu3bt2juhhSRmtr60oZMQuHw2uWLVv2U92yTJ5nb7e17J07dz4r/99NuDVdXiAQSKurq5sbq8033XRTb2lpabNJE8pCYDQFCHmjqc21EEAgJQVUOCkvL1+ckZFx1hr4amtrK06fPl2+Zs2aL+vgSNknT578rx0dHY+lp6e/f9999305Xp7Vk/B58ODBepmitrdNpq87OzsXuAm3fpUXy33q1Kn73NRPp/84BwE/BQh5fupSNgIIIDAoIKN38hya/N+JEyf+dv369Q/LlOuhQ4eenzlz5v7KysrvucAaWLTR3Nz8tEzVyjSw14UYBw4c+Py0adOOmxy5UqFMwpK9bT09PYUZGRmtbkKU6fKieUtorq2t/cfe3t67w+HwX7udTnbRhzqHplVVVX1RwrH4paend2VlZTVkZWWdNDF6K77xNt0vSLYFSzpu1nPSGhoaigze52mDhcflM7GEPK+3C+cjgEBSCciXfFdX110VFRX73S4KGA5CjbjJMWvWrNkgZUuwamtrW7NkyZLPOV1hW11d/WdHjhypGj9+/HuhUOibxcXFLzo9d7j6yfTp6dOn13pc+TrkEuq5wVjXnThx4hk3Icp0ebZ6pcnzkU1NTVsGn538K5P9b+JDIqOf77777nL5pUDs+vr6Mq5du3arLOhZunRp2GtAk+dGo426Dld3CYbNzc1P5ubmHrR+ZqSucp7LX14C8rxqW1vbOhWw1UIb9TyrG0e5Xy5duiSLe67/iUQiRfKZC4fDX8vKyjrr5rMjn71IJBJatWrVVilQPr8nTpz4piyg0qmfm7boHkvI05XjPAQQSEoBNbUqISo3N/cFWRHq5ovAJYqMArgaAZAv1d7e3mluwpHTOlmnfuWcgoKCHXPmzHnOx/Y7rZqvx8mU+RtvvPFtucgDDzzwpNew5EdlJbDs3r37XGVlZcg+CiVh48yZM3/qZFRU7p9Y9Ys1tT5Me9K2bdvWGAwG3+zp6blDtslR9dMJeWqkVgKTlDd+/PjL6enpl2+++eZ3JXy7WYUudVYr2mPVv7S09G/chFDrIwZyz9TU1LwsZciWRvILkomgbfreIeSZFqU8BBBIBoG06urq5U1NTV+ULy6ZbtRZCWqFkNWk6ktYRgRyc3PrJTzpLLxQIzoyGiGBRI3uyQpb3Wf7bJ020P62trbHZKsW3WfT1Jd2rBvCbbmmy5OFFzt37vyRfEEPfuF/323oHs2bXab8oz1zKaOw48aN+52TvpfRuuHq7GYkT8KlPDKwYcOGT4rlrl27tsmzoY888sii06dPL5LruA1RslpcylN9rUKjfH5ycnKOuClP6iSjszIyqFZ463zelJc15KkRTLVwSLN+vt8+hDzfibkAAggksoCMbr311luV8kUh7Yi2HYiT9lmnwuQLoaSk5FsS0Nx+6aiRRplW7e/vz87JyamWKTv5kpfVtW5HO4YbpZGgJ3vayXN/br78LWX+wepVqausBLYEK1fPItpXw3opz4fQ6ORW0D5Gwnx9ff0PgsFgnbUQCeJq5fZIhatfENavX19uD7Rup2vVvWgdEVOjojK6J88Kugllqj/UPSx1lfPVLzFuR96UhdTpyJEjP5kyZcpL8uxqU1PTXzoZ9bRbWn+5kmlfFXCVg8HP3kjd6PjfCXmOqTgQAQRSVUBNY0qI0v2iMRXy5ItmcLRjjgQemWJT00QmRhPUal9pq+nNltWXrawCNjEtaqC8hNtCRU3Xy7Nh48eP7w4Ggy2Dr4rrdDoKKc+55eXl1dhXYbsNefLzQMq6cuVKvi00DYyQug15Up6MSvb3999mLU/u676+vtuiBVMXP5Ouj9q6HUFW11AhW21iLn8vv/wMF5xd1M+XQwl5vrBSKAIIJLqAPAPV2tq6SK1g9brZsKmQp54Fso92qFEQ3RCqpt5Mrda19r9Yvvrqq9+TESfd+vlZXiLfqxI8ZFpd2qAzOmVtu5Sl+aznHzxbKn3+/vvvz3jggQfq3fraV9PKL1n9/f3dH3300VSvz0vK56evr+9meVxCFmV4LU/aJvWV/zVVnluv4Y4n5JnUpCwEEEh4AfmBffTo0a/LdKKMZBUWFv7YxApWUyFPgGVkw/6lLn8n22ps2LBhjtMRHWtnyYhMRkbGGRNttZYroxxNTU1flSnGhx566EteF3GYLC/RpmuVq9yjjY2Nj8sjBDKq5OUXEHtZmtPy17tchU5TgT7VyjP9A5SQZ1qU8hBAIKEF1APVXvedsyMM98C7zvSRfbRDRigGp+3O63SAjJaUlpa2qIConhWcMWPGvxQWFh7WCWfWEBVtr7zbbrvthNqOwkmdTZeXaG+8sAYeeSZTVp9qLEYYoLaWJSvJS0pKvqr7DmR7UJTVscXFxc/qjpKlWnlO7n3dYwh5unKchwACySpg3yx1YIVef3//LdGeY3KKMNzWFaZenyWjXDk5OW/ofLlaF4OorSckSKjVxTpTgab3tTNdnvRJfX39N0Kh0PdN74vo9L5wc5z8oiB9ovZV1NmmRO1DJ9eVLXImTpzY4XT7FXtd1S8CagW2rECXFelq1bebtsmxqVaeWx+d4wl5OmqcgwACSStgXe0qoWL//v2HpLHytgqZGvOyF5Z6dsc2Kjbw9goTbyyQEKD7zJs15Ml/ywie1ElCgexR5nT1ZiLdGNIf9fX162XbD6m37Is4e/bs/23wbQhGOVRAk4Urubm5e+UXD5lid7OCVe4ReQxBbcXidnW3tUHql4FQKLRJ7adovY/cNj7VynPro3M8IU9HjXMQQCBpBaxfevLfv/zlL5+V59zkVUg1NTV7ZMsSJ/uR2YGsG7OqRRPWrR3UfltjBWv9cpbn86ZMmVInD+EP975YJ3WVaeCGhob10j77dKvO6KDp8gbb8Af7AnrdF9GJje4xMtWq9nCUwDZnzpzNTkci7e86lq1O7KtZXdRryH6SMk0biUTu9bByOtXKc0GtdyghT8+NsxBAIEkFoo3kDW72OrDgQfcZqC1btpyXd9YWFBTsqq+v3yXPqMk0l4yCrFq16u/dLJZQe/ep8+T/v/HGG//DSzCRtkUikTJZICELOGTBiYwQqXrLu3Z1ulw28JXz1Aa3Mj0q03mvvPLKP69cuXKu22f9TJdnb5N6HkxGL3WeldQx0j3HGtik31yG5iGByuvr7OxvS/H6tphUK0/3HhjpPELeSEL8OwIIpJSAGm1SD7ZLEJMVh7LFiISz8vLyxfb9xZwADa6uvVHCnEy7dXR0rNQZ8VCvt5KH5eW68o5P2bBYXlYvz8/pTifLl+oHH3wwUV6Z1tvbO0M92yd1dRtClYeqqxq5tAZotZrXzVSj6fLs/Wbf+HpwMcJPnfTvGB8zsN+fzrOYUm/rPpBeV9fKYha1ibb6RcGjTaqV55Fr6OmEPKOcFIYAAkkgcH2D3M7OzvukPRJEZGpV/lsn4Ml51i1UrK9HcuulXoour47q6emZLu/PHAx2x7dv314jL693E5zcXt/N8fapXglpHR0dYZkGdvO+VXVN0+UNlmv8FXZujOLsWNfvUh6h/pQ3xh189OjRZ9rb29dLNbKzsw8vWbJE3nQSuGGM6xWIlT7Hul5cHwEEENARMBXy1K77EvJky5MdO3b8fN26dX/e0tKSs3fv3uOhUOib8RLy1MhbtNFF6+IOp56my1Ovo5JRUVlpqhYPOK0PxyEQ7wKHDh2q6erqGniPcH5+/vb58+c/RciL916jfgggkHACBvfJS9uyZctZ+zNY8joo2cBZvdA9XoC2b9/+iuznpt7Vq94kIlPfOit2TZZnHVmMFy/qgYBJAWvImzVr1tfD4fBmQp5JYcpCAAEEBvcAiwWhsU9eWm1t7SLr1LFMAct7THWnk33spDSZRpbnBdU11JtENEccTZfnY9MpGoGxFdi/f/+x7u7uuVILQt7Y9gVXRwABBJJWQKZGz507N3fatGnHTexDZ7q8pIWnYSkt8Pzzz3+sAObNm7eyqKho4JWIPJOX0rcFjUcAAQQQQACBRBaIRCKZBw8e/L1qQ1lZWfmdd955mJCXyL1K3RFAAAEEEEAg5QVaWloePXbs2F4FsXTp0luCwWA3IS/lbw0AEEAAAQQQQCCRBay7lEyYMKFtxYoVhao9TNcmcs9SdwQQQAABBBBIaQHrytoZM2Y89+CDDz5ByEvpW4LGI4AAAggggECiC9ifxwuFQk+XlpY+Q8hL9J6l/ggggAACCCCQ0gInT558/MSJEz9WCIsXL541adKkVkJeSt8WNB4BBBBAAAEEEl2gpqbmxc7OzhXSjszMzOPLly+fZ20Tz+Qleg9TfwQQQAABBBBIOYGLFy8Wvvzyy6dUw+1TtfL3hLyUuy1oMAIIIIAAAggkuoB1Va20xT5VS8hL9B6m/ggggAACCCCQkgL79u1rvXr1aoE0PicnZ195efmjdghG8lLy1qDRCCCAAAIIIJCoAvYNkK2vMrO2iZCXqD1MvRFAAAEEEEAgJQWsCy7sGyAT8lLylqDRCCCAAAIIIJDoAvYFF7Nmzfp6OBzeHK1djOQlem9TfwQQQAABBBBIGQEnCy4UBiEvZW4LGooAAggggAACiS7gZMEFIS/Re5n6I4AAAggggEBKCThdcEHIS6nbgsYigAACCCCAQKILOF1wQchL9J6m/ggggAACCCCQMgKRSCTz4MGDv1cNHm7BBSEvZW4LGooAAggggAACiS7Q0NDwVFNT03dVO6K94cLeRhZeJHqvU38EEEAAAQQQSHoBNwsuGMlL+tuBBiKAAAIIIIBAMgi8/fbbi+rq6mpUW2K94YKRvGTobdqAAAIIIIAAAikj8Nprr/34zJkzj0uDh3vDRdyFPPsc89KlS28JBoPdKdNzNBQBBBBAAAEEEIghoLPgQhU15s/k2V/PkZ+fv33+/PlP0dsIIIAAAggggECqC+gsuIibkCcV2b9//7Hu7u65qlKhUOjp6dOnH5g0aVJrqncu7UcAAQQQQACB1BXQWXARVyGvo6Nj7uuvv/6v/f39QWs3yrzz5MmTD4wbN27Mp2+lDgTP1P2Q0XIEEEAAAQRGW0B3wUVchTypzMmTJx8/ceLEj0cb0O31MjMzj8+ZM+cLubm5x92ey/EIIIAAAggggIBTAd0FF3EX8qRC8k629vb2v+rq6lrkFGAsjktPT48UFxd/Zfbs2c+NxfW5JgIIIIAAAggkt4CXBRdxGfJUpaRh77//fkVXV1dZT0/P7HjoxmjB0+k+NfFQf+qAAAIIIIAAAokj4GXBRVyHvHjsAgmev/3tbze3t7evV/XLzs4+vGTJkvJ4rC91QgABBBBAAIHEFfCy4IKQp9nv7OunCcdpCCCAAAIIIOBIwOuCC0KeI+Y/PMi+rx9TtpqQnIYAAggggAACUQWsCy5kHcBnP/vZbB2qMd8MWafSY32OdQiVzZvHuje4fioLyC9d0n5Te2qmWnnq3pFtrEzvGCCPuHz44YeTTfWNqqv00Y033njB9JuRZOTkzjvvPBzvnyfTfWW6PPHzo0y/yo3HutoXXHjJGYQ8jU/00aNHn1HP5vFcngYgpyDgUUC+kN95553/p7Ozc4UUlZOTs++OO+74n7pf0qlWnpjJF8m77767tr29/QtXr14tkNGCvLy87+fn57/gJZjJl+Y777zzhQsXLiyXvU/lZ+T06dP3eN2NwL77wowZM56bMWPGHt0+VwZtbW1PnT179jExkL1Zp0+f/kJBQcEzpkOkl1tegm17e/tjp0+f/qKYSj3z8/N/OHPmzJ069TRdnrTNjzL9Kjfe62piwYW63wh5Gp+8+vr6zadOnfo7OZWQpwHIKQh4EDh06FBNrG2WdD6PqVaeGhGJtgG96hbdx1CsvwDbu9jLlJP9rUjWsnVHOezPPNnrW1ZWVu4lQHq4xYecKuH22LFje6OVJ6af/vSn73cTyk2XJ/Xyo0y/yk2EulpnC3V+plnvFUKexieRkKeBxikIGBCQUaLa2tpjwxW1cOHCeU6nHlOtPOVmfd4nmqVs+r58+fJ5brpMRgYPHz78jv3NRdYySkpKnnA7ojfcl7Iqe/HixbPcBB05r6am5kU1EhytnTI6XF5e/qgbAz+OHS7gyvVkRPPBBx98wum1TZcn1/WjTL/Kjfe62n/50PnMEPKcfhpiHEfI8wjI6QhoCljDycSJEwPz5v1nDjl27Figt7d34L/dfOmlWnniYw9jubm5gaKiokBnZ2fg17/+9fWecROW5ST7W4ukbyZNmhSora293jc64dE60ip9XlZWFrhy5UrgV7/61fW6zpo16+vhcHiz09vKvoDurrvuChQUFATa2toCb7311vVidMKj0zo4Oc7+hX/PPffIowkycibPvQ0UIaN5ixYtusPJtK3p8uT6fpTpV7mJUFdTCy7U/cVInpNPmu0YQp4GGqcg4FHA/jDypz71qUB+fv5AqfLFLEFP/Vm6dOktI33ppVp5ysb+vM+qVasCN954Y+Djjz+WERmtsCxlW6eYJDSpAH758uXASy+9pBUe7WGsoqJiIDja+9ztVLB9Wvmxxx4L3HDDDYEPP/wwsGfPnut11Z0K9nirXz/d/kvIZz7zmYF/s9czFAo9XVpa+sxI1zVdnlzPjzL9Kjfe62pywQUhb6RPwzD/TsjzgMepCHgQ+NnPftalpgMlREiYkD8yAqVGodx84adaeWJlH3FbsWJF4BOf+ITngGMdcZMgJoFM/pw7dy7wi1/84nqvuxkdGy6IS6hXo26yEGHFihUDK62d/IkVdPv7+wM///nPrxfhNDw5uabOMbHC6H/8x39IqL5epNMpPdPlSQX8KNOvcuO9riYXXBDydD5xg+cQ8jzgcSoCHgSsnz0pRqYa5Y+aupL/djN1l2rlKXpruJW/k2nAd9555/oonvydmzAWLTxK0JOpResUsM5D5PbnByXYy+jgxYsXXYccdYJ9ylqmgadNmzYQSNW0v5tpUA+39LCn2kcypZ533HHHEFM3Add0eVJ5P8r0q9x4r6vJBReEPA+fSkKeBzxORcCDgP2HdLSi3ISTVCtPednDrd3RzXON1nOtX1LR+kZnxepIi2N0w9hIi090DTzc3lFPHWmBiJtfauQCpsvzq0y/yvWj/SbqanrBBSHPwyeRkOcBj1MR8Cggnz+1X5i1KPmyLyws/HsnzyZZz0u18tQoyb/927/tiLYVjSyOmDNnzhecrlC2WspU8KlTp74me86ZCo5SjkyznTt37vP2uRuFYAAAAqlJREFUlbvS58XFxV9xu2JXGbz++uv/p7u7e669rjLi+Md//Mfr3K7Y9XhrRz1dQm5jY+MPY9Xz3nvvXTHS86fWgk2XJ2X7UaZf5cZrXU0vuCDkefg0EvI84HEqAgYEZLrt/Pnzj8qmu1LcHXfc8cOpU6e+6ObLzlqNVCtPtV1GMk+dOvUFCVCTJ0/eL4464c7epbLtyZkzZ/5Ld3f3J71s2mvvI7V584QJE06b2GBZBQm5jyKRyIJgMHjElIGB23xIETLSc+bMmVWyyfS0adN+OmvWrB96CaGmy5PK+lGmX+XGU139WHBByPPwCSTkecDjVAQQQAABBBC4LuDHggtCnocbjJDnAY9TEUAAAQQQQOC6gB8LLgh5Hm4wQp4HPE5FAAEEEEAAgQEBvxZcEPI83GCEPA94nIoAAggggAACA2+fee211/5NLVRys8enUz7eeOFUynKcff7cye76GpfhFAQQQAABBBBIUgH75sxut8NxwkLIc6JkO8a+t9ZYv/pGowmcggACCCCAAAJjJGAfLNJ5r7OTqhPynChFOWb//v3HrPsWyetvpk+ffsDLknbNqnAaAggggAACCCSAgDyDd+rUqQ3WPSplmvbTn/70/X7kB0Ke5k0hGyq+/vrr/2rfnFNeMTN58uQD48aN69YsmtMQQAABBBBAIEkErl27ltnT0zO7u7t7jj0zSBP9fEcyIc/DTWR/0beHojgVAQQQQAABBFJIQAaFSkpKvnDnnXce9qvZhDyPsrKze3t7+19Fez2Qx6I5HQEEEEAAAQSSTECmZ/Py8r5fUFDwjO5bepySEPKcSo1wnCyFfv/99yu6urrKZFjWULEUgwACCCCAAAIJLpCRkXFSHuOaMmXK/zXx6kCnHIQ8p1IchwACCCCAAAIIJJDA/wehPiKcNJu1oQAAAABJRU5ErkJggg==;rotation=90;" vertex="1" parent="1">
                    <mxGeometry x="-10" y="180" width="200" height="136.17" as="geometry"/>
                </mxCell>
                <mxCell id="9" value="Red" style="text;html=1;align=center;verticalAlign=middle;resizable=0;points=[];autosize=1;strokeColor=none;fillColor=none;" vertex="1" parent="1">
                    <mxGeometry x="485" y="180" width="50" height="30" as="geometry"/>
                </mxCell>
                <mxCell id="10" value="Blue" style="text;html=1;align=center;verticalAlign=middle;resizable=0;points=[];autosize=1;strokeColor=none;fillColor=none;" vertex="1" parent="1">
                    <mxGeometry x="485" y="260" width="50" height="30" as="geometry"/>
                </mxCell>
                <mxCell id="11" value="Green" style="text;html=1;align=center;verticalAlign=middle;resizable=0;points=[];autosize=1;strokeColor=none;fillColor=none;" vertex="1" parent="1">
                    <mxGeometry x="480" y="340" width="60" height="30" as="geometry"/>
                </mxCell>
                <mxCell id="13" style="edgeStyle=none;html=1;exitX=1;exitY=0.5;exitDx=0;exitDy=0;exitPerimeter=0;entryX=0;entryY=0.57;entryDx=0;entryDy=0;entryPerimeter=0;rounded=0;endArrow=none;endFill=0;" edge="1" parent="1" source="12" target="5">
                    <mxGeometry relative="1" as="geometry"/>
                </mxCell>
                <mxCell id="21" style="edgeStyle=none;rounded=0;html=1;exitX=0;exitY=0.5;exitDx=0;exitDy=0;exitPerimeter=0;endArrow=none;endFill=0;" edge="1" parent="1" source="12">
                    <mxGeometry relative="1" as="geometry">
                        <mxPoint x="152" y="247" as="targetPoint"/>
                        <Array as="points">
                            <mxPoint x="200" y="206"/>
                            <mxPoint x="200" y="247"/>
                        </Array>
                    </mxGeometry>
                </mxCell>
                <mxCell id="12" value="" style="pointerEvents=1;verticalLabelPosition=bottom;shadow=0;dashed=0;align=center;html=1;verticalAlign=top;shape=mxgraph.electrical.resistors.resistor_2;" vertex="1" parent="1">
                    <mxGeometry x="260" y="186" width="120" height="40" as="geometry"/>
                </mxCell>
                <mxCell id="16" style="edgeStyle=none;rounded=0;html=1;exitX=1;exitY=0.5;exitDx=0;exitDy=0;exitPerimeter=0;entryX=0;entryY=0.57;entryDx=0;entryDy=0;entryPerimeter=0;endArrow=none;endFill=0;" edge="1" parent="1" source="15" target="3">
                    <mxGeometry relative="1" as="geometry"/>
                </mxCell>
                <mxCell id="19" style="edgeStyle=none;rounded=0;html=1;exitX=0;exitY=0.5;exitDx=0;exitDy=0;exitPerimeter=0;endArrow=none;endFill=0;" edge="1" parent="1" source="15">
                    <mxGeometry relative="1" as="geometry">
                        <mxPoint x="153" y="253" as="targetPoint"/>
                        <Array as="points">
                            <mxPoint x="210" y="286"/>
                            <mxPoint x="210" y="253"/>
                        </Array>
                    </mxGeometry>
                </mxCell>
                <mxCell id="15" value="" style="pointerEvents=1;verticalLabelPosition=bottom;shadow=0;dashed=0;align=center;html=1;verticalAlign=top;shape=mxgraph.electrical.resistors.resistor_2;" vertex="1" parent="1">
                    <mxGeometry x="260" y="266" width="120" height="40" as="geometry"/>
                </mxCell>
                <mxCell id="18" style="edgeStyle=none;rounded=0;html=1;exitX=1;exitY=0.5;exitDx=0;exitDy=0;exitPerimeter=0;entryX=0;entryY=0.57;entryDx=0;entryDy=0;entryPerimeter=0;endArrow=none;endFill=0;" edge="1" parent="1" source="17" target="6">
                    <mxGeometry relative="1" as="geometry"/>
                </mxCell>
                <mxCell id="20" style="edgeStyle=none;rounded=0;html=1;exitX=0;exitY=0.5;exitDx=0;exitDy=0;exitPerimeter=0;endArrow=none;endFill=0;" edge="1" parent="1" source="17">
                    <mxGeometry relative="1" as="geometry">
                        <mxPoint x="153" y="260" as="targetPoint"/>
                        <Array as="points">
                            <mxPoint x="200" y="366"/>
                            <mxPoint x="200" y="290"/>
                            <mxPoint x="180" y="290"/>
                            <mxPoint x="180" y="260"/>
                        </Array>
                    </mxGeometry>
                </mxCell>
                <mxCell id="17" value="" style="pointerEvents=1;verticalLabelPosition=bottom;shadow=0;dashed=0;align=center;html=1;verticalAlign=top;shape=mxgraph.electrical.resistors.resistor_2;" vertex="1" parent="1">
                    <mxGeometry x="260" y="346" width="120" height="40" as="geometry"/>
                </mxCell>
                <mxCell id="30" style="edgeStyle=none;rounded=0;html=1;exitX=1;exitY=0.57;exitDx=0;exitDy=0;exitPerimeter=0;endArrow=none;endFill=0;" edge="1" parent="1">
                    <mxGeometry relative="1" as="geometry">
                        <mxPoint x="153" y="240" as="targetPoint"/>
                        <mxPoint x="560" y="205.78999999999996" as="sourcePoint"/>
                        <Array as="points">
                            <mxPoint x="560" y="410"/>
                            <mxPoint x="145" y="410"/>
                            <mxPoint x="145" y="240"/>
                        </Array>
                    </mxGeometry>
                </mxCell>
                <mxCell id="31" value="220&amp;nbsp;Ω" style="text;html=1;align=center;verticalAlign=middle;resizable=0;points=[];autosize=1;strokeColor=none;fillColor=none;" vertex="1" parent="1">
                    <mxGeometry x="290" y="156" width="60" height="30" as="geometry"/>
                </mxCell>
                <mxCell id="32" value="220&amp;nbsp;Ω" style="text;html=1;align=center;verticalAlign=middle;resizable=0;points=[];autosize=1;strokeColor=none;fillColor=none;" vertex="1" parent="1">
                    <mxGeometry x="290" y="240" width="60" height="30" as="geometry"/>
                </mxCell>
                <mxCell id="33" value="220&amp;nbsp;Ω" style="text;html=1;align=center;verticalAlign=middle;resizable=0;points=[];autosize=1;strokeColor=none;fillColor=none;" vertex="1" parent="1">
                    <mxGeometry x="290" y="320" width="60" height="30" as="geometry"/>
                </mxCell>
            </root>
        </mxGraphModel>
    </diagram>
</mxfile>